<svg xmlns="http://www.w3.org/2000/svg" xmlns:xlink="http://www.w3.org/1999/xlink" version="1.1" x="0px" y="0px" viewBox="0 0 100 125" style="enable-background:new 0 0 100 100;" xml:space="preserve"><g><path d="M53.3,20.3c-0.4-1.2-1.6-2-2.8-2c-1.3,0-2.4,0.8-2.8,2l-7,20l-20.9,0.3c-1.3,0-2.4,0.8-2.8,2c-0.4,1.2,0,2.5,1,3.3L34.5,59   l-5.9,19.8c-0.4,1.2,0.1,2.5,1.1,3.3c1,0.8,2.4,0.8,3.4,0.1l17.3-11.6l9.9-30.4L53.3,20.3z"/><polygon points="72.3,46.2 63.4,44.1 59.4,55.4 63.4,57.5  "/><path d="M69.4,83.3c0.4,0.4,1,0.7,1.5,0.8c0.6,0.1,1.3,0.1,1.9-0.2c1.1-0.5,1.8-1.7,1.7-3l-1-10.6l-11.3,5.8L69.4,83.3z"/><path d="M88.7,47.7c-0.2-1.3-1.1-2.3-2.3-2.5l-9.1-1L66.7,57.4l3.8,1.8l16.7-8.5C88.2,50.2,88.9,48.9,88.7,47.7z"/><polygon points="61.7,64.5 56.5,61.6 52.7,72.3 57.5,75.7 70.5,69.1 69.8,63.7 64.6,60.8  "/><polygon points="66.1,31.1 63.6,40.5 65.8,38.8 73.2,33  "/></g><text x="0" y="115" fill="#000000" font-size="5px" font-weight="bold" font-family="'Helvetica Neue', Helvetica, Arial-Unicode, Arial, Sans-serif">Created by Jems Mayor</text><text x="0" y="120" fill="#000000" font-size="5px" font-weight="bold" font-family="'Helvetica Neue', Helvetica, Arial-Unicode, Arial, Sans-serif">from the Noun Project</text></svg>