<?xml version="1.0" standalone="no"?>
<!DOCTYPE svg PUBLIC "-//W3C//DTD SVG 20010904//EN"
 "http://www.w3.org/TR/2001/REC-SVG-20010904/DTD/svg10.dtd">
<svg version="1.0" xmlns="http://www.w3.org/2000/svg"
 width="2560.000000pt" height="592.000000pt" viewBox="0 0 2560.000000 592.000000"
 preserveAspectRatio="xMidYMid meet">

<g transform="translate(0.000000,592.000000) scale(0.100000,-0.100000)"
fill="#000000" stroke="none">
<path d="M20220 5660 l-1195 -258 1198 -1 1197 -1 0 260 c0 143 -1 259 -2 259
-2 -1 -541 -117 -1198 -259z"/>
<path d="M23280 5043 c-96 -7 -269 -35 -361 -58 -321 -80 -570 -214 -769 -414
-247 -249 -362 -526 -376 -911 -16 -409 92 -735 325 -982 185 -196 421 -332
773 -446 169 -56 334 -98 728 -186 184 -42 391 -92 460 -112 419 -120 635
-277 704 -513 25 -87 30 -195 12 -281 -81 -385 -487 -578 -1092 -519 -784 76
-1254 538 -1371 1347 l-17 122 -248 0 -248 0 0 -975 0 -975 225 0 c203 0 225
2 233 18 5 9 40 104 77 210 37 105 71 192 74 192 3 0 38 -25 76 -56 121 -97
305 -213 450 -284 337 -164 645 -231 997 -216 926 38 1483 421 1628 1119 64
308 49 636 -41 898 -116 339 -395 608 -810 783 -232 97 -480 167 -1009 285
-173 39 -371 87 -440 107 -507 145 -695 326 -677 650 20 352 185 516 582 576
127 19 462 16 570 -5 279 -56 465 -154 656 -346 120 -120 202 -239 285 -409
59 -120 140 -354 169 -484 l17 -78 244 0 244 0 0 900 0 900 -198 0 -197 0
-109 -175 c-60 -97 -112 -174 -115 -173 -4 2 -71 46 -151 100 -172 114 -289
180 -431 241 -290 125 -566 173 -869 150z"/>
<path d="M0 4611 l0 -259 248 -5 c295 -5 338 -14 413 -86 91 -88 84 48 84
-1696 0 -1235 -3 -1542 -13 -1594 -27 -130 -81 -209 -167 -248 -34 -15 -77
-18 -302 -21 l-263 -3 0 -265 0 -264 2263 2 2262 3 3 993 2 992 -254 0 -254 0
-7 -77 c-42 -513 -104 -784 -234 -1022 -47 -86 -185 -225 -266 -268 -33 -18
-101 -44 -150 -60 l-90 -28 -782 -3 -783 -3 0 827 0 826 263 -4 c276 -5 314
-11 411 -60 53 -27 140 -110 171 -164 73 -125 103 -270 112 -541 l6 -193 254
0 253 0 0 1180 0 1180 -255 0 -255 0 0 -88 c0 -459 -123 -691 -405 -767 -44
-12 -127 -18 -307 -22 l-248 -6 0 742 0 742 738 -4 c638 -3 748 -6 822 -21
205 -40 324 -97 430 -205 155 -156 232 -386 289 -856 12 -93 24 -191 27 -218
l6 -47 251 2 252 3 3 933 2 932 -2265 0 -2265 0 0 -259z"/>
<path d="M4880 4611 l0 -259 278 -4 c259 -4 281 -5 334 -26 64 -26 119 -79
139 -138 12 -32 14 -312 14 -1659 l0 -1620 -23 -50 c-30 -65 -63 -98 -126
-127 -49 -22 -63 -23 -333 -26 l-283 -3 0 -265 0 -264 2175 0 2175 0 0 1010 0
1010 -260 0 -260 0 0 -52 c0 -83 -28 -370 -51 -522 -69 -463 -205 -721 -440
-834 -179 -86 -239 -92 -986 -92 l-613 0 0 1683 c0 1126 4 1703 11 1747 13 84
48 143 103 175 76 45 156 55 434 55 l252 0 0 260 0 260 -1270 0 -1270 0 0
-259z"/>
<path d="M10620 4611 l0 -260 283 -3 282 -3 58 -28 c71 -35 104 -81 117 -163
13 -80 13 -3178 0 -3258 -13 -82 -46 -128 -117 -163 l-58 -28 -280 -5 -280 -5
0 -260 0 -260 1243 -3 1242 -2 0 265 0 265 -262 0 c-268 0 -324 6 -393 43 -39
20 -91 75 -104 110 -8 19 -11 262 -11 737 l0 708 668 5 c618 4 677 5 800 25
668 106 1050 439 1147 997 21 120 24 365 6 475 -87 534 -457 888 -1064 1019
-234 51 -248 51 -1814 51 l-1463 0 0 -259z m2630 -275 c504 -61 712 -280 712
-751 0 -171 -17 -259 -74 -375 -100 -205 -315 -329 -643 -369 -52 -6 -263 -11
-497 -11 l-408 0 0 760 0 760 398 0 c273 -1 433 -5 512 -14z"/>
<path d="M16125 4858 c-3 -7 -298 -863 -655 -1903 -358 -1039 -667 -1924 -687
-1965 -67 -138 -189 -231 -348 -265 -38 -9 -127 -18 -197 -22 l-128 -6 0 -264
0 -263 1065 0 1065 0 0 265 0 265 -307 0 c-333 0 -369 4 -415 50 -48 48 -41
109 41 368 38 119 95 297 126 395 l56 177 776 -2 775 -3 109 -340 c131 -411
139 -437 141 -514 1 -52 -2 -65 -22 -86 -13 -14 -40 -29 -59 -35 -20 -6 -174
-10 -354 -10 l-317 0 2 -262 3 -263 2313 -3 2312 -2 0 264 0 265 -257 3 -258
3 -57 28 c-72 36 -113 84 -138 166 -20 62 -20 99 -20 1620 0 1779 -8 1625 89
1722 47 47 70 61 127 80 61 20 93 23 292 27 l222 4 0 259 0 259 -1210 0 -1210
0 0 -259 0 -259 253 -4 c292 -5 321 -11 397 -87 87 -87 80 59 80 -1758 0
-1229 -3 -1615 -12 -1646 -16 -54 -64 -100 -135 -129 -56 -22 -66 -23 -358
-23 -246 0 -313 3 -372 17 -173 40 -289 130 -362 280 -22 45 -344 927 -715
1958 -371 1031 -678 1883 -681 1893 -7 16 -39 17 -486 17 -375 0 -481 -3 -484
-12z m674 -1799 c160 -460 291 -839 291 -842 0 -4 -259 -7 -576 -7 -457 0
-575 3 -572 13 3 6 123 380 267 829 299 935 280 878 291 858 4 -8 139 -391
299 -851z"/>
</g>
</svg>
