<?xml version="1.0" encoding="UTF-8" standalone="no"?>
<svg
   xmlns:dc="http://purl.org/dc/elements/1.1/"
   xmlns:cc="http://creativecommons.org/ns#"
   xmlns:rdf="http://www.w3.org/1999/02/22-rdf-syntax-ns#"
   xmlns:svg="http://www.w3.org/2000/svg"
   xmlns="http://www.w3.org/2000/svg"
   xmlns:sodipodi="http://sodipodi.sourceforge.net/DTD/sodipodi-0.dtd"
   xmlns:inkscape="http://www.inkscape.org/namespaces/inkscape"
   y="0px"
   x="0px"
   data-name="Logo/Estadão"
   viewBox="0 0 700 700.00002"
   version="1.1"
   id="svg17"
   sodipodi:docname="estadao-logo.svg"
   width="700"
   height="700"
   inkscape:export-filename="G:\Users\suitedoalex\sites\estadao-logo-0.png"
   inkscape:export-xdpi="561.73712"
   inkscape:export-ydpi="561.73712"
   inkscape:version="0.92.4 (5da689c313, 2019-01-14)">
  <metadata
     id="metadata21">
    <rdf:RDF>
      <cc:Work
         rdf:about="">
        <dc:format>image/svg+xml</dc:format>
        <dc:type
           rdf:resource="http://purl.org/dc/dcmitype/StillImage" />
        <dc:title>Logo Estadão</dc:title>
      </cc:Work>
    </rdf:RDF>
  </metadata>
  <sodipodi:namedview
     pagecolor="#ffffff"
     bordercolor="#666666"
     borderopacity="1"
     objecttolerance="10"
     gridtolerance="10"
     guidetolerance="10"
     inkscape:pageopacity="0"
     inkscape:pageshadow="2"
     inkscape:window-width="1600"
     inkscape:window-height="837"
     id="namedview19"
     showgrid="false"
     inkscape:zoom="0.75909091"
     inkscape:cx="346.98075"
     inkscape:cy="350.6691"
     inkscape:window-x="-8"
     inkscape:window-y="-8"
     inkscape:window-maximized="1"
     inkscape:current-layer="svg17" />
  <defs
     id="defs4">
    <style
       id="style2">
            .cls-2{fill:#2d74e7}
        </style>
  </defs>
  <title
     id="title6">Logo Estadão</title>
  <g
     id="Grupo_117"
     data-name="Grupo 117"
     transform="matrix(2.2363727,0,0,2.2363727,103.99788,297.29427)"
     inkscape:export-filename="G:\Users\suitedoalex\sites\estadao-logo-4.png"
     inkscape:export-xdpi="78.048103"
     inkscape:export-ydpi="78.048103">
    <path
       id="Caminho_66"
       d="m 579.024,40.552 a 16.505,16.505 0 0 1 -0.3,1.93 c -0.152,0.632 -1.589,4.185 -1.694,4.772 a 14.12,14.12 0 0 0 -0.089,1.721 c -0.436,0.191 -1.439,0.939 -1.971,0.939 -0.532,0 -1.8,-1.214 -2.353,-1.359 0,-1.5 0.386,-1.624 0.252,-2.4 a 12.837,12.837 0 0 0 -0.936,-2.6 2.159,2.159 0 0 1 -0.113,-1.211 1.467,1.467 0 0 0 -0.235,1.1 c 0.138,0.829 0.8,2.077 0.894,2.624 0.094,0.547 0.066,1.175 -0.141,1.314 a 10.882,10.882 0 0 1 -4.239,-1.378 30.452,30.452 0 0 0 -3.108,-1.553 17.845,17.845 0 0 1 2.375,-3.725 11.228,11.228 0 0 1 2.759,-2.4 8.761,8.761 0 0 1 4.629,-0.91 17.724,17.724 0 0 1 2.885,0.57 c 0,0 0.924,-0.767 1.632,-0.526 -0.2,0.533 -0.431,1.079 -0.431,1.079 l 0.917,0.534 a 13.2,13.2 0 0 0 -0.732,1.476 M 537.8,54.235 a 4.961,4.961 0 0 0 1.147,3.106 c 0.008,0.005 0.016,0.017 0.025,0.024 A 20.077,20.077 0 0 1 538.414,55.11 V 53.6 a 12.728,12.728 0 0 1 0.945,-3.072 c -0.008,0.006 -0.008,0.013 -0.013,0.013 -0.005,0 -0.035,0.03 -0.048,0.042 a 5.028,5.028 0 0 0 -0.96,1.3 l -0.054,0.11 a 4.845,4.845 0 0 0 -0.47,1.793 c -0.009,0.122 -0.018,0.242 -0.018,0.364 0,0.025 0.008,0.053 0.008,0.083 m 25.085,-8.022 a 0.512,0.512 0 0 0 0.189,-0.187 5.652,5.652 0 0 0 0.355,-0.628 c 0,-0.4 -0.837,-0.357 -1.014,-0.5 -0.177,-0.143 -0.258,-0.35 -0.536,-0.472 l -0.013,0.042 c -0.008,0.073 -0.008,0.172 -0.008,0.267 a 4.328,4.328 0 0 1 0.072,0.782 3.7,3.7 0 0 1 -0.119,1 3.969,3.969 0 0 1 0.454,0.2 2.275,2.275 0 0 1 0.619,-0.509 m -0.1,-3.047 -3.256,-3.656 -2.111,1.762 0.081,0.257 a 4.617,4.617 0 0 0 0.252,0.528 5.011,5.011 0 0 0 0.354,0.528 5.205,5.205 0 0 0 0.474,0.537 c 0.025,0.025 0.054,0.046 0.075,0.07 a 4.791,4.791 0 0 0 1.6,0.995 3.418,3.418 0 0 0 1.084,0.209 l 1.452,-1.231 z m -1.583,-6.049 v -0.963 a 0.393,0.393 0 0 0 -0.1,-0.31 1.6,1.6 0 0 1 -0.344,-0.23 c -0.037,-0.028 -0.072,-0.064 -0.1,-0.091 a 1.057,1.057 0 0 1 -0.667,-0.075 1.014,1.014 0 0 1 -0.323,-0.178 0.557,0.557 0 0 1 -0.191,-0.393 c -0.108,0 -0.213,-0.013 -0.314,-0.025 v 0.626 c 0.008,0.025 0.011,0.055 0.018,0.077 a 1.4,1.4 0 0 1 -0.22,1.219 1.526,1.526 0 0 1 -1.22,0.641 2.177,2.177 0 0 0 0.008,0.55 c 0.023,0.166 0.2,0.62 0.267,0.866 a 4.706,4.706 0 0 1 0.262,1.368 l 0.481,-0.405 c -0.1,-0.386 -0.218,-0.788 -0.327,-1.185 -0.075,-0.273 -0.152,-0.54 -0.218,-0.8 a 1.975,1.975 0 0 0 1.3,-0.907 5.7,5.7 0 0 0 0.837,0.22 h 0.846 z m 1.214,-1.238 c 0.131,-0.13 0.1,-0.448 -0.146,-0.986 a 2.436,2.436 0 0 0 -0.3,-0.322 c -0.192,0.1 -0.271,0.1 -0.337,0.135 a 2.154,2.154 0 0 1 -0.17,0.245 c -0.044,0.051 -0.157,0.032 -0.2,0.068 a 0.877,0.877 0 0 1 -0.321,0.4 2.036,2.036 0 0 0 0.638,0.4 c 0.16,0.063 0.7,0.184 0.834,0.063 m 0.626,-2.2 a 4.527,4.527 0 0 0 1.435,-1.308 1.874,1.874 0 0 1 -0.3,-0.135 3.086,3.086 0 0 1 -0.977,-0.926 5.46,5.46 0 0 1 -1.574,2.116 1.208,1.208 0 0 1 0.08,0.207 0.408,0.408 0 0 1 0.016,0.066 1.532,1.532 0 0 1 0.008,0.55 5.437,5.437 0 0 0 1.318,-0.57 m 1.622,-1.618 c 0,0 0.01,0 0.012,-0.006 a 0.075,0.075 0 0 0 0.024,-0.064 1.407,1.407 0 0 0 -0.5,-0.773 2.927,2.927 0 0 0 -0.446,-0.359 c -0.174,-0.107 -0.311,-0.151 -0.39,-0.123 a 0.122,0.122 0 0 0 -0.025,0.015 0.115,0.115 0 0 0 -0.016,0.037 0.181,0.181 0 0 0 0.008,0.128 1.853,1.853 0 0 0 0.483,0.681 c 0.357,0.344 0.732,0.553 0.851,0.463 m -3.409,1.418 c 0,-0.008 -0.823,0.065 -0.823,0.065 0,0 -0.4,0.283 -0.453,0.528 a 3.835,3.835 0 0 0 0,0.509 l 1.286,0.025 a 1.08,1.08 0 0 0 -0.01,-1.126 m -0.911,1.759 c 0.674,0.049 0.638,-0.341 0.638,-0.341 l -1.165,-0.018 c 0,0 -0.148,0.319 0.527,0.359 m -1.691,-1.378 a 1.265,1.265 0 0 0 -0.365,-0.276 c -0.144,0.132 -0.338,0.316 -0.522,0.456 -0.008,0.007 -0.008,0.013 -0.018,0.013 a 0.949,0.949 0 0 1 -0.216,0.148 1.039,1.039 0 0 1 -0.273,-0.467 0.462,0.462 0 0 1 -0.023,-0.126 0.3,0.3 0 0 1 0.17,-0.3 3.208,3.208 0 0 0 0.4,-0.184 0.531,0.531 0 0 1 0.129,-0.264 1.963,1.963 0 0 0 -0.226,-0.4 l -0.35,-0.207 a 3.28,3.28 0 0 1 -0.39,-0.238 c 0,0.221 0.02,0.356 0.018,0.518 v 0.056 c 0,0.091 0.008,0.187 0.013,0.279 0,0.173 0.008,0.344 0.008,0.516 h -0.3 a 1.25,1.25 0 0 0 -0.008,-0.172 c 0,-0.1 0,-0.184 -0.008,-0.282 -0.008,-0.098 -0.013,-0.2 -0.015,-0.294 -0.021,-0.387 -0.054,-0.758 -0.087,-1.111 a 0.608,0.608 0 0 0 -0.126,-0.028 c -0.075,-0.013 -0.152,-0.021 -0.227,-0.034 h -0.04 c -0.06,0 -0.116,0.006 -0.173,0.006 -0.016,0.043 0.116,0.814 0.147,0.951 0.015,0.074 0.141,0.884 0.144,0.93 v 0.034 h -0.284 l -0.008,0.013 c -0.06,-0.356 -0.126,-0.7 -0.207,-1.031 -0.074,-0.307 -0.16,-0.6 -0.248,-0.881 a 3.177,3.177 0 0 0 -0.792,0.206 c -0.008,0.005 -0.018,0.005 -0.024,0.013 a 2.307,2.307 0 0 0 -0.49,0.288 c -0.026,0.018 -0.051,0.038 -0.073,0.056 a 4.15,4.15 0 0 0 -0.291,0.338 c -0.137,0.187 -0.249,0.362 -0.329,0.478 -0.049,0.07 -0.049,0.165 -0.1,0.271 a 1.5,1.5 0 0 0 -0.048,0.171 1.79,1.79 0 0 0 -0.025,0.187 V 33.5 a 0.281,0.281 0 0 1 0.046,0.018 c 0.1,0.025 0.186,0.049 0.278,0.065 a 3.524,3.524 0 0 0 0.729,0.076 c 0.021,0 0.045,0.005 0.066,0.005 a 3.272,3.272 0 0 0 0.349,-0.017 h 0.008 v 0.017 a 2.16,2.16 0 0 0 0.55,0.971 2.315,2.315 0 0 0 0.726,0.525 1.144,1.144 0 0 0 0.193,0.07 c 0.038,0.013 0.074,0.026 0.115,0.038 a 1.55,1.55 0 0 0 -0.007,0.183 c 0,0.093 0,0.185 -0.008,0.267 l 0.234,0.028 c 0,-0.08 0.008,-0.163 0.011,-0.239 a 0.417,0.417 0 0 1 0.008,-0.1 V 35.25 c 0,-0.1 0,-0.194 0.007,-0.3 v -0.165 c 0,-0.1 0,-0.2 0.008,-0.3 V 34.43 c 0,-0.037 0.008,-0.073 0.008,-0.1 v -0.1 h 0.291 v 0.26 c 0.021,0.025 0.044,0.047 0.065,0.074 a 0.007,0.007 0 0 1 0.008,0.007 c 0.107,0.115 0.216,0.242 0.321,0.361 0.031,0.038 0.063,0.075 0.093,0.108 a 0.061,0.061 0 0 1 0.02,0.022 0.516,0.516 0 0 1 0.034,0.042 c 0.079,0.092 0.158,0.187 0.228,0.282 a 1.573,1.573 0 0 0 0.25,-0.187 1.186,1.186 0 0 0 0.186,-0.206 1.237,1.237 0 0 0 0.075,-0.11 1.591,1.591 0 0 0 0.084,-0.159 c 0.014,-0.038 0.034,-0.074 0.048,-0.111 a 0.209,0.209 0 0 0 0.023,-0.055 2.2,2.2 0 0 1 0.094,-0.221 0.594,0.594 0 0 1 0.236,-0.283 0.512,0.512 0 0 0 -0.12,-0.193 m -4,10.3 -0.171,-0.183 c -0.039,-0.044 -0.075,-0.086 -0.111,-0.123 0,-0.01 -0.015,-0.019 -0.02,-0.028 l -1.074,0.9 3.305,3.689 0.129,-0.109 1.952,-1.65 a 8.163,8.163 0 0 1 -1.829,-0.774 9.539,9.539 0 0 1 -1.914,-1.448 0.254,0.254 0 0 1 -0.038,-0.044 c -0.047,-0.042 -0.089,-0.083 -0.13,-0.128 a 1.191,1.191 0 0 1 -0.1,-0.1 m -2.352,1.337 -0.015,0.013 0.977,0.785 2.4,1.939 0.183,-0.214 -2.453,-2.749 -0.069,-0.073 c 0,0 -0.018,-0.007 -0.011,-0.019 l -0.266,-0.3 -0.747,0.614 z m -0.094,1.317 0.035,0.01 2.149,0.822 0.17,0.065 -1.973,-1.571 -0.091,-0.07 z m -14.955,14.445 c -0.084,-0.362 -0.171,-0.747 -0.257,-1.046 l -0.665,-2.31 -0.933,-3.243 a 4.777,4.777 0 0 1 4.578,-6.094 5.013,5.013 0 0 1 0.685,0.049 4.444,4.444 0 0 0 0.459,-0.07 1.229,1.229 0 0 0 0.217,-0.065 c 0.055,-0.017 0.111,-0.037 0.162,-0.058 0.1,-0.038 0.2,-0.083 0.311,-0.133 0.177,-0.08 0.361,-0.159 0.537,-0.232 a 10.306,10.306 0 0 1 2.69,-0.78 11.077,11.077 0 0 1 3.466,0.055 10.429,10.429 0 0 1 1.993,0.562 4.892,4.892 0 0 0 0.751,0.2 c 0.414,0 0.45,-0.436 0.962,-0.436 a 2.972,2.972 0 0 1 0.694,0.252 c 0,0 -0.069,0.1 -0.072,0.1 a 17.689,17.689 0 0 0 -2.083,4.947 0.783,0.783 0 0 0 -0.025,0.092 l -0.063,0.257 c 0,0 6.807,2.743 6.825,2.756 0.047,-0.117 1.235,-2.983 1.235,-2.983 0,0 1.251,0.872 1.9,1.258 a 12.857,12.857 0 0 0 0.011,1.565 c 0.113,2.031 0.479,5.042 0.591,5.977 0.1,0.117 0.17,0.231 0.329,0.231 0.159,0 1.922,-0.186 2.405,-0.837 l -0.3,-4.465 -0.22,-3.272 -2.331,-5.557 -0.362,-0.862 -0.687,1.648 -2.821,6.764 -6.087,-2.41 c 0,-0.018 0.008,-0.034 0.009,-0.052 a 0.016,0.016 0 0 1 0.009,-0.017 0.294,0.294 0 0 1 0.018,-0.075 17.439,17.439 0 0 1 2.216,-5.167 c 0.028,-0.077 0.047,-0.117 0.047,-0.124 0,-0.135 0.008,-0.11 -0.032,-0.141 l -1.589,-0.6 0.417,-1.068 -0.4,-0.323 0.107,-0.092 0.4,-0.328 0.615,-0.509 0.745,-0.623 0.331,-0.276 0.122,-0.1 -0.148,-0.205 c 0,0 -0.241,-0.323 -0.352,-0.491 a 8.106,8.106 0 0 1 -0.654,-1.164 c -0.116,-0.258 -0.217,-0.509 -0.3,-0.761 a 1.256,1.256 0 0 1 -0.087,-0.288 6.568,6.568 0 0 1 -0.2,-0.981 4.355,4.355 0 0 1 -0.041,-0.572 v -0.077 a 2.036,2.036 0 0 1 0.3,-1.034 1.394,1.394 0 0 1 0.217,-0.294 l 0.042,-0.037 a 2.245,2.245 0 0 1 0.2,-0.2 2.107,2.107 0 0 1 0.465,-0.291 1.68,1.68 0 0 1 0.339,-0.151 0.007,0.007 0 0 0 0.007,-0.007 c 0.008,-0.091 0.009,-0.19 0.016,-0.312 0.069,0.007 0.138,0.019 0.2,0.031 a 2.985,2.985 0 0 1 0.535,0.135 0.138,0.138 0 0 1 0.039,0.013 c -0.055,-0.349 -0.465,-0.417 -0.6,-0.61 a 0.207,0.207 0 0 1 -0.053,-0.135 0.247,0.247 0 0 1 0.038,-0.128 0.376,0.376 0 0 0 0.094,-0.216 0.2,0.2 0 0 0 -0.028,-0.107 0.2,0.2 0 0 0 -0.068,-0.084 l -0.009,-0.008 a 0.536,0.536 0 0 0 -0.072,-0.042 c -0.031,-0.025 -0.062,-0.049 -0.091,-0.068 -0.041,-0.037 -0.079,-0.077 -0.116,-0.113 a 2.61,2.61 0 0 1 -0.692,-1.273 c -0.009,-0.038 -0.011,-0.074 -0.021,-0.117 -0.01,-0.043 -0.013,-0.1 -0.016,-0.15 a 2.459,2.459 0 0 1 0.008,-0.488 c 0.009,-0.046 0.015,-0.1 0.024,-0.147 a 2.4,2.4 0 0 1 0.8,-1.357 3.439,3.439 0 0 1 0.362,-0.264 0.126,0.126 0 0 0 0.027,-0.021 2.489,2.489 0 0 1 0.474,-0.224 0.662,0.662 0 0 1 0.086,-0.028 0.19,0.19 0 0 1 0.057,-0.014 3.21,3.21 0 0 1 0.471,-0.111 3.348,3.348 0 0 1 0.424,-0.037 c 0.093,0 0.189,0 0.276,0.007 0.038,0 0.08,0.01 0.114,0.013 l 0.093,0.009 h 0.229 c 0.083,0 0.173,-0.006 0.273,-0.006 0.024,0.033 0.047,0.063 0.068,0.1 l 0.024,0.035 c 0.078,0.135 0.14,0.261 0.183,0.344 0.008,0.013 0.011,0.02 0.02,0.025 a 0.435,0.435 0 0 0 0.075,0.092 c 0.242,0.224 0.645,0.288 0.735,0.488 0.09,0.2 0.432,0.893 0.432,0.893 0,0 0.724,0.817 0.724,0.853 0,0.154 -0.008,0.225 0.1,0.337 a 4.463,4.463 0 0 0 0.432,-0.144 3.351,3.351 0 0 1 0.038,-0.34 c 0.013,-0.028 0.518,-0.691 0.784,-0.67 0.068,0 0.963,-0.073 0.967,-0.073 a 4.347,4.347 0 0 0 1.56,-2.5 v -0.024 a 0.191,0.191 0 0 0 0.013,-0.049 0.25,0.25 0 0 1 0.066,-0.1 0.4,0.4 0 0 1 0.368,-0.068 1.506,1.506 0 0 1 0.39,0.15 2.987,2.987 0 0 1 0.6,0.454 c 0.06,0.059 0.111,0.111 0.16,0.169 a 2.587,2.587 0 0 1 0.3,0.411 0.789,0.789 0 0 1 0.141,0.681 l -0.022,0.031 a 5.155,5.155 0 0 1 -2.705,2.116 0.53,0.53 0 0 0 -0.089,0.049 1.8,1.8 0 0 1 0.475,0.774 h 1.183 v 3.4 c 0,0.053 -0.008,0.1 -0.011,0.148 -0.003,0.048 -0.012,0.1 -0.024,0.155 -0.008,0.031 -0.012,0.063 -0.022,0.1 a 1.661,1.661 0 0 1 -0.186,0.427 c -0.018,0.029 -0.039,0.053 -0.057,0.083 a 1.64,1.64 0 0 1 -1.079,0.651 c -0.078,0.013 -0.159,0.018 -0.241,0.024 h -1.643 l 2.669,3 c 0,0 -0.795,0.651 -1.068,0.908 a 2.963,2.963 0 0 0 0.411,0.476 c 0.183,0.108 1.314,0.2 1.226,0.742 a 0.943,0.943 0 0 1 -0.044,0.184 4.037,4.037 0 0 1 -0.469,0.74 c -0.185,0.239 -0.571,0.26 -0.7,0.657 a 1.083,1.083 0 0 1 0.42,0.539 15.213,15.213 0 0 0 1.708,-2.43 c 1.371,0.347 4.673,2.188 5.541,2.458 a 13.034,13.034 0 0 0 1.88,0.361 2.665,2.665 0 0 0 -0.175,0.636 c 0.008,0.08 0.27,0.156 0.572,0.338 A 2.015,2.015 0 0 1 573,49.2 a 5.037,5.037 0 0 0 0.32,2.23 6.329,6.329 0 0 1 0.261,0.746 c 0.026,0.08 0.044,0.16 0.066,0.246 0.042,0.187 0.079,0.38 0.111,0.579 0.037,0.252 0.063,0.507 0.075,0.765 0,0.067 0.008,0.134 0.008,0.2 v 0.288 a 1.436,1.436 0 0 1 -0.008,0.182 8.2,8.2 0 0 1 -0.1,0.948 c -0.015,0.067 -0.026,0.135 -0.043,0.208 -0.018,0.092 -0.038,0.2 -0.063,0.286 a 6.489,6.489 0 0 1 -0.335,1.017 0.793,0.793 0 0 0 -0.047,0.1 c -0.009,0.025 -0.018,0.043 -0.024,0.063 a 0.111,0.111 0 0 0 -0.015,0.03 c -0.034,-0.006 -0.066,-0.021 -0.1,-0.03 a 3.106,3.106 0 0 1 -0.594,-0.273 c -0.122,-0.077 -0.242,-0.157 -0.356,-0.246 a 3.141,3.141 0 0 1 -0.336,-0.31 2.984,2.984 0 0 0 0.861,1.083 c 0.062,0.046 0.129,0.1 0.2,0.145 a 1.009,1.009 0 0 0 0.154,0.061 c 0.008,0 0.905,0.288 1.086,0.325 A 22.958,22.958 0 0 1 577,58.49 c 0.155,0.052 0.44,-0.3 1.3,-0.231 a 1.7,1.7 0 0 1 1.49,1.48 c -0.018,0.57 -0.261,0.708 -0.342,1.037 -0.1,0.421 -0.758,4.026 -0.83,4.656 -0.047,0.4 -0.059,0.972 -0.059,0.979 0,0.058 0.159,0.736 0.173,0.966 0,0.046 0.008,0.077 0.008,0.123 a 1.811,1.811 0 0 1 -0.026,0.31 1.591,1.591 0 0 1 -0.626,1.087 c -0.008,0.021 -0.012,0.043 -0.021,0.064 -0.048,0.175 -0.108,0.35 -0.168,0.525 a 6.659,6.659 0 0 1 -1.484,2.359 l -0.018,-0.03 -1.308,-2.5 -0.016,-0.028 a 5.846,5.846 0 0 1 1.062,-1.414 2.3,2.3 0 0 1 0.171,-0.169 c 0.132,-0.122 0.27,-0.239 0.408,-0.353 0,-0.038 -0.008,-0.079 -0.008,-0.115 a 1.767,1.767 0 0 1 0.55,-1.276 1.735,1.735 0 0 1 0.161,-0.142 c 0,-0.1 0.2,-3.875 0.04,-5.269 a 3.9,3.9 0 0 1 -1.48,-0.552 c -0.129,-0.1 -4.286,0.3 -4.413,0.313 -0.127,0.013 -0.474,-0.156 -0.716,-0.152 -0.242,0.004 -0.632,0.056 -0.777,0.056 a 1.307,1.307 0 0 1 -0.766,-0.249 1.224,1.224 0 0 1 -0.469,-0.7 0.828,0.828 0 0 1 -0.035,-0.192 V 58.93 a 1.292,1.292 0 0 1 0.013,-0.134 l 0.024,-0.136 a 1.269,1.269 0 0 1 0.136,-0.319 3.946,3.946 0 0 1 -0.667,-0.263 4.752,4.752 0 0 1 -0.581,-0.351 4.268,4.268 0 0 1 -1.131,-1.189 4.178,4.178 0 0 1 -0.27,-0.5 4.186,4.186 0 0 0 1.829,2.547 c -0.012,0.087 -0.021,0.175 -0.026,0.267 a 1.942,1.942 0 0 0 0.045,0.494 2,2 0 0 0 0.482,0.936 2.1,2.1 0 0 0 1.05,0.629 c -0.331,1.223 -1.058,3.32 -1.058,3.47 a 17.3,17.3 0 0 1 -1.155,2.741 18.225,18.225 0 0 1 -0.4,2.712 4.053,4.053 0 0 0 -0.05,0.592 c 0,0.157 -0.084,1.124 -0.141,2.682 0,0.133 -0.051,0.154 -0.051,0.31 a 0.7,0.7 0 0 0 0.126,0.362 c 0,0.006 0.013,0.015 0.018,0.024 0.054,0.074 0.111,0.145 0.164,0.218 0.072,0.1 0.144,0.2 0.213,0.3 a 6.809,6.809 0 0 1 0.434,0.749 c 0.065,0.13 0.125,0.259 0.181,0.387 a 0.918,0.918 0 0 1 0.081,0.175 7.083,7.083 0 0 1 0.46,1.752 h -3.072 a 3.867,3.867 0 0 0 0.066,-0.54 4.126,4.126 0 0 0 -0.462,-2.019 2.989,2.989 0 0 0 -0.5,-0.869 8,8 0 0 1 0.245,-1.329 8.423,8.423 0 0 1 0.7,-1.463 c 0,0 0.194,-3.7 0.194,-3.856 0,-0.156 -0.263,-1.492 -0.372,-2.174 a 7.163,7.163 0 0 0 -0.6,-2.065 c -0.071,-0.135 0.331,-0.513 0.454,-0.74 l -0.076,-0.073 a 0.291,0.291 0 0 0 -0.054,0.007 c -0.161,0.14 -3.127,1.033 -3.127,1.033 a 6.856,6.856 0 0 0 -0.918,-1.006 36.987,36.987 0 0 1 -3.89,-0.5 34.275,34.275 0 0 1 -5.423,-1.448 c -0.3,-0.11 -0.594,-0.227 -0.874,-0.337 a 0.152,0.152 0 0 0 -0.031,0.046 v 0.156 a 4.837,4.837 0 0 1 -0.044,0.608 6.842,6.842 0 0 1 -0.612,2.23 4.557,4.557 0 0 1 -0.515,0.85 l -0.037,0.074 a 3.558,3.558 0 0 1 0.3,0.865 4.163,4.163 0 0 1 0.088,0.575 5.37,5.37 0 0 1 0,0.715 42.719,42.719 0 0 1 3.473,4.836 0.366,0.366 0 0 1 0.023,0.037 1.537,1.537 0 0 1 0.729,1.375 2.1,2.1 0 0 1 -0.069,0.506 1.611,1.611 0 0 1 -0.249,0.513 c 0.045,0.179 0.082,0.35 0.111,0.535 a 5.859,5.859 0 0 1 0.069,1.178 v 0.037 a 5.7,5.7 0 0 1 -0.344,1.712 2.626,2.626 0 0 1 -0.162,0.316 l -2.342,-1.908 -0.057,-0.043 a 6.733,6.733 0 0 1 0.375,-0.819 8.716,8.716 0 0 1 0.5,-0.811 1.727,1.727 0 0 1 -0.5,-1.025 1.763,1.763 0 0 1 -0.01,-0.206 c 0,-0.058 0.008,-0.125 0.01,-0.187 a 2.2,2.2 0 0 1 0.377,-1.149 c -0.286,-0.5 -0.973,-1.483 -1.19,-1.758 a 12.273,12.273 0 0 0 -1.352,-1.442 4.418,4.418 0 0 0 -1.049,-0.369 c 0.057,0.007 -0.028,-0.006 0,0 -0.174,-0.019 -0.72,-0.108 -0.72,-0.108 l -0.824,-0.143 -0.052,-0.007 0.2,-0.645 c 0,-0.011 0.008,-0.024 0.008,-0.042 a 3.056,3.056 0 0 0 0,-0.721 2.1,2.1 0 0 0 -0.12,-0.495 c -0.021,-0.055 -0.047,-0.1 -0.069,-0.157 a 1.874,1.874 0 0 0 -0.107,-0.181 0.271,0.271 0 0 1 -0.034,-0.043 c -0.29,-0.383 -0.957,-1.237 -1.07,-1.368 0.023,-0.024 0.045,-0.056 0.065,-0.077 l 0.033,-0.039 a 9.09,9.09 0 0 0 1.122,-1.783 9.441,9.441 0 0 0 0.39,-0.958 9.078,9.078 0 0 0 0.338,-1.262 c 0.042,-0.2 0.076,-0.4 0.108,-0.608 a 0.143,0.143 0 0 1 0.008,-0.056 c 0.138,-0.092 0.273,-0.193 0.4,-0.3 a 5.2,5.2 0 0 0 0.969,-1.012 4.968,4.968 0 0 0 0.458,-0.746 l 0.079,-0.165 c -0.031,0.048 -0.063,0.1 -0.1,0.147 a 5.387,5.387 0 0 1 -1.694,1.547 l -0.069,0.035 a 1.75,1.75 0 0 1 -0.176,0.1 3.787,3.787 0 0 1 -0.409,0.187 c -0.026,0.194 -0.062,0.381 -0.1,0.565 -0.059,0.274 -0.129,0.534 -0.208,0.795 -0.068,0.228 -0.15,0.452 -0.235,0.669 a 8.561,8.561 0 0 1 -0.483,1.046 8.428,8.428 0 0 1 -0.707,1.105 c -0.069,0.086 -0.129,0.169 -0.194,0.245 a 8.03,8.03 0 0 1 -1.816,1.645 6.985,6.985 0 0 1 -1.163,0.614 c -0.119,0.048 -0.233,0.1 -0.35,0.135 a 3.261,3.261 0 0 1 -0.951,1.225 2.936,2.936 0 0 0 -0.588,0.536 5.493,5.493 0 0 0 -0.638,1.491 23.28,23.28 0 0 0 -0.559,2.609 c 0,0.147 -0.063,0.778 -0.063,0.932 0,0.154 0.446,1.648 0.446,1.811 a 0.054,0.054 0 0 0 0.016,0.042 4.826,4.826 0 0 1 1.535,1.964 5.045,5.045 0 0 1 0.4,1.4 h -2.611 a 6.422,6.422 0 0 0 -0.317,-1.227 6.221,6.221 0 0 0 -1.058,-1.845 3.86,3.86 0 0 0 -0.317,-0.347 0.523,0.523 0 0 1 -0.066,-0.249 0.1,0.1 0 0 1 -0.008,-0.048 5.867,5.867 0 0 1 0.41,-1.565 1.575,1.575 0 0 0 0.166,-0.491 c 0,-0.153 0.261,-3.234 0.243,-3.347 a 11.956,11.956 0 0 0 -1.01,-2.256 4.38,4.38 0 0 1 0.5,-0.546 2.34,2.34 0 0 0 0.834,-1.206 c 0.027,-0.135 0.141,-0.147 0.141,-0.3 a 0.249,0.249 0 0 0 -0.032,-0.147 3.4,3.4 0 0 1 -2.046,0.674 3.149,3.149 0 0 0 1.085,-3.082 c -0.009,-0.05 -0.018,-0.1 -0.031,-0.142"
       data-name="Caminho 66"
       transform="translate(-359.789,-30.39)"
       inkscape:connector-curvature="0"
       style="fill:#2575e8" />
    <path
       id="Caminho_67"
       d="M 59.68,92.552 V 55.038 h 19.172 v 6.339 H 66.679 V 70 h 9.281 v 6.339 h -9.281 v 9.872 h 12.68 v 6.339 z"
       class="cls-2"
       data-name="Caminho 67"
       transform="translate(-59.68,-45.945)"
       inkscape:connector-curvature="0"
       style="fill:#2d74e7" />
    <path
       id="Caminho_68"
       d="m 133.039,64.593 a 9.5,9.5 0 0 0 -2.08,-3.845 4.169,4.169 0 0 0 -3.043,-1.2 3.67,3.67 0 0 0 -2.866,1.091 4.324,4.324 0 0 0 -0.989,3.014 3.25,3.25 0 0 0 1.166,2.468 16.187,16.187 0 0 0 2.891,2.052 q 1.724,0.988 3.753,2.1 a 21.368,21.368 0 0 1 3.753,2.624 13.5,13.5 0 0 1 2.891,3.585 10.043,10.043 0 0 1 1.166,4.988 11.848,11.848 0 0 1 -0.781,4.43 9.266,9.266 0 0 1 -2.282,3.377 10.126,10.126 0 0 1 -3.677,2.156 15.028,15.028 0 0 1 -4.92,0.753 11.532,11.532 0 0 1 -7.43,-2.494 q -3.119,-2.494 -4.539,-8.054 l 6.9,-1.507 a 10.639,10.639 0 0 0 0.888,2.884 6.766,6.766 0 0 0 1.344,1.9 4.692,4.692 0 0 0 1.6,1.039 4.569,4.569 0 0 0 1.6,0.312 4.492,4.492 0 0 0 3.145,-7.508 14.2,14.2 0 0 0 -2.891,-2.364 q -1.725,-1.091 -3.753,-2.156 a 23.414,23.414 0 0 1 -3.753,-2.442 13.131,13.131 0 0 1 -2.891,-3.2 8.106,8.106 0 0 1 -1.166,-4.469 10.479,10.479 0 0 1 2.764,-7.69 q 2.763,-2.806 8.242,-2.806 a 12.386,12.386 0 0 1 4.21,0.675 10.423,10.423 0 0 1 3.3,1.9 10.739,10.739 0 0 1 2.358,2.883 13.6,13.6 0 0 1 1.395,3.637 z"
       class="cls-2"
       data-name="Caminho 68"
       transform="translate(-95.253,-45.056)"
       inkscape:connector-curvature="0"
       style="fill:#2d74e7" />
    <path
       id="Caminho_69"
       d="m 206.2,55.038 v 6.339 h -8.17 v 31.175 h -7 V 61.377 h -8.166 v -6.339 z"
       class="cls-2"
       data-name="Caminho 69"
       transform="translate(-137.421,-45.945)"
       inkscape:connector-curvature="0"
       style="fill:#2d74e7" />
    <path
       id="Caminho_70"
       d="m 233.734,92.552 9.078,-37.514 h 8.977 l 8.825,37.514 h -6.694 l -1.775,-7.9 h -9.687 l -1.978,7.9 z m 9.991,-14.237 h 6.948 l -3.4,-15.172 h -0.1 z"
       class="cls-2"
       data-name="Caminho 70"
       transform="translate(-169.524,-45.945)"
       inkscape:connector-curvature="0"
       style="fill:#2d74e7" />
    <path
       id="Caminho_71"
       d="m 310.587,55.038 h 9.738 a 18.5,18.5 0 0 1 5.326,0.7 9.606,9.606 0 0 1 3.955,2.262 10.32,10.32 0 0 1 2.51,4.027 19.532,19.532 0 0 1 0.989,6 v 11.536 a 19.522,19.522 0 0 1 -0.989,6 10.312,10.312 0 0 1 -2.51,4.027 9.607,9.607 0 0 1 -3.956,2.26 18.518,18.518 0 0 1 -5.326,0.7 h -9.738 z m 7,31.175 h 2.435 a 5.985,5.985 0 0 0 4.489,-1.637 q 1.6,-1.637 1.6,-5.845 v -9.872 q 0,-4 -1.395,-5.742 -1.395,-1.742 -4.691,-1.741 h -2.435 z"
       class="cls-2"
       data-name="Caminho 71"
       transform="translate(-218.026,-45.945)"
       inkscape:connector-curvature="0"
       style="fill:#2d74e7" />
    <path
       id="Caminho_72"
       d="m 371.354,77 9.079,-37.514 h 8.977 L 398.235,77 h -6.695 l -1.775,-7.9 h -9.687 L 378.1,77 Z m 22.722,-46.607 a 16.65,16.65 0 0 1 -0.659,2.364 8.234,8.234 0 0 1 -1.04,2 4.665,4.665 0 0 1 -1.6,1.4 4.851,4.851 0 0 1 -2.333,0.52 7.174,7.174 0 0 1 -2,-0.286 q -0.989,-0.285 -1.9,-0.623 -0.911,-0.338 -1.8,-0.623 a 5.705,5.705 0 0 0 -1.75,-0.286 1.9,1.9 0 0 0 -1.521,0.65 3.511,3.511 0 0 0 -0.761,1.533 h -3.2 a 12.328,12.328 0 0 1 0.634,-2.39 7.322,7.322 0 0 1 1.141,-2.026 5.351,5.351 0 0 1 1.7,-1.4 5.012,5.012 0 0 1 2.358,-0.519 6.621,6.621 0 0 1 2,0.312 q 0.989,0.312 1.9,0.649 0.911,0.337 1.725,0.65 a 4.05,4.05 0 0 0 1.42,0.312 2.079,2.079 0 0 0 1.547,-0.65 3.184,3.184 0 0 0 0.837,-1.584 z m -12.73,32.37 h 6.948 l -3.4,-15.172 h -0.1 z"
       class="cls-2"
       data-name="Caminho 72"
       transform="translate(-256.375,-30.391)"
       inkscape:connector-curvature="0"
       style="fill:#2d74e7" />
    <path
       id="Caminho_73"
       d="m 444.5,66.2 a 17.41,17.41 0 0 1 0.863,-5.872 10.058,10.058 0 0 1 2.383,-3.871 9.094,9.094 0 0 1 3.652,-2.156 16.454,16.454 0 0 1 9.332,0 9.093,9.093 0 0 1 3.652,2.156 10.072,10.072 0 0 1 2.383,3.871 17.43,17.43 0 0 1 0.862,5.872 v 13.409 a 17.417,17.417 0 0 1 -0.862,5.871 10.065,10.065 0 0 1 -2.383,3.871 9.085,9.085 0 0 1 -3.652,2.156 16.454,16.454 0 0 1 -9.332,0 9.086,9.086 0 0 1 -3.652,-2.156 10.052,10.052 0 0 1 -2.383,-3.871 17.4,17.4 0 0 1 -0.863,-5.871 z m 7,14.341 q 0,3.118 1.217,4.209 a 5.681,5.681 0 0 0 6.695,0 q 1.217,-1.091 1.217,-4.209 V 65.269 q 0,-3.118 -1.217,-4.208 a 5.679,5.679 0 0 0 -6.695,0 q -1.217,1.091 -1.217,4.208 z"
       class="cls-2"
       data-name="Caminho 73"
       transform="translate(-302.534,-45.056)"
       inkscape:connector-curvature="0"
       style="fill:#2d74e7" />
  </g>
</svg>
