<?xml version="1.0" standalone="no"?>
<!DOCTYPE svg PUBLIC "-//W3C//DTD SVG 20010904//EN"
 "http://www.w3.org/TR/2001/REC-SVG-20010904/DTD/svg10.dtd">
<svg version="1.0" xmlns="http://www.w3.org/2000/svg"
 width="457.000000pt" height="96.000000pt" viewBox="0 0 457.000000 96.000000"
 preserveAspectRatio="xMidYMid meet">

<g transform="translate(0.000000,96.000000) scale(0.100000,-0.100000)"
fill="#000000" stroke="none">
<path d="M2662 930 c-56 -25 -87 -89 -77 -157 5 -37 15 -53 52 -87 130 -118
135 -123 131 -157 -2 -21 -12 -39 -30 -52 -24 -18 -32 -19 -68 -8 -22 6 -40
17 -40 24 0 32 -22 87 -35 87 -12 0 -15 -15 -15 -70 0 -68 1 -70 28 -77 15 -4
52 -7 83 -7 70 1 121 30 149 85 42 80 17 171 -59 223 -25 17 -58 43 -73 58
-53 51 -26 123 44 116 30 -3 34 -7 49 -52 23 -76 39 -71 39 12 0 64 -2 70 -22
76 -44 11 -114 5 -156 -14z"/>
<path d="M20 929 c0 -6 9 -13 20 -16 19 -5 20 -14 20 -229 0 -217 -1 -224 -20
-224 -11 0 -20 -7 -20 -15 0 -12 18 -15 105 -15 85 0 105 3 105 14 0 9 -12 16
-27 18 l-28 3 -3 103 -3 103 33 -3 c27 -2 33 -8 40 -35 15 -59 28 -35 28 52 0
87 -13 111 -28 53 -7 -28 -13 -34 -40 -36 l-32 -3 0 106 0 106 42 -3 c41 -3
42 -4 61 -60 28 -85 47 -78 47 17 l0 75 -150 0 c-102 0 -150 -4 -150 -11z"/>
<path d="M2980 930 c0 -6 11 -15 25 -20 l25 -10 -2 -217 c-3 -218 -3 -218 -25
-221 -13 -2 -23 -10 -23 -18 0 -11 21 -14 105 -14 85 0 105 3 105 14 0 9 -12
16 -27 18 -28 3 -28 3 -31 91 l-3 87 41 0 c89 0 137 43 147 130 8 70 -17 133
-61 154 -40 19 -276 24 -276 6z m205 -40 c13 -15 18 -37 18 -87 0 -38 -3 -78
-7 -91 -8 -24 -41 -46 -56 -37 -11 7 -14 218 -3 228 12 12 30 7 48 -13z"/>
<path d="M456 880 c-81 -26 -122 -118 -113 -257 8 -141 57 -198 168 -197 75 1
113 25 145 91 24 47 26 61 22 155 -4 117 -20 163 -68 191 -36 21 -114 30 -154
17z m101 -47 c15 -23 18 -50 18 -174 0 -134 -2 -150 -21 -176 -43 -57 -87 -34
-104 57 -20 108 -7 265 27 302 24 27 59 23 80 -9z"/>
<path d="M4336 880 c-81 -26 -122 -118 -114 -255 9 -143 57 -199 170 -199 125
1 174 78 166 261 -4 109 -20 148 -69 177 -35 20 -113 29 -153 16z m101 -47
c15 -23 18 -50 18 -174 0 -134 -2 -150 -21 -176 -44 -59 -89 -32 -104 63 -19
114 -9 239 24 289 22 34 60 33 83 -2z"/>
<path d="M700 869 c0 -6 9 -13 20 -16 19 -5 20 -14 20 -198 0 -184 -1 -193
-20 -198 -11 -3 -20 -10 -20 -16 0 -7 43 -11 130 -11 l130 0 0 71 c0 84 -15
89 -40 13 -16 -46 -19 -49 -51 -49 l-34 0 -3 191 c-2 185 -2 192 18 197 11 3
20 10 20 16 0 7 -30 11 -85 11 -55 0 -85 -4 -85 -11z"/>
<path d="M970 869 c0 -6 9 -13 20 -16 19 -5 20 -14 20 -198 0 -187 -1 -193
-21 -198 -12 -3 -18 -10 -14 -16 8 -14 165 -15 165 -1 0 6 -7 13 -15 16 -12 5
-15 25 -15 95 l0 89 45 0 45 0 0 -89 c0 -71 -3 -90 -16 -95 -34 -13 1 -26 71
-26 72 0 110 15 66 27 -20 5 -21 11 -21 198 0 162 2 194 15 199 8 3 15 10 15
16 0 6 -32 10 -80 10 -48 0 -80 -4 -80 -10 0 -6 7 -13 15 -16 12 -5 15 -25 15
-95 l0 -89 -45 0 -45 0 0 89 c0 70 3 90 15 95 8 3 15 10 15 16 0 6 -33 10 -85
10 -55 0 -85 -4 -85 -11z"/>
<path d="M1480 843 c-5 -21 -29 -112 -52 -202 -27 -106 -48 -170 -60 -180 -29
-25 -22 -31 37 -31 55 0 76 16 34 27 -16 5 -19 11 -14 31 3 13 9 37 12 53 5
27 9 29 53 29 l48 0 16 -47 c20 -59 20 -60 -5 -66 -45 -12 -5 -27 71 -27 74 0
116 15 73 26 -18 5 -33 48 -130 377 -13 42 -18 47 -43 47 -25 0 -31 -5 -40
-37z m30 -182 l18 -61 -38 0 -37 0 15 65 c9 35 17 63 19 61 3 -2 13 -31 23
-65z"/>
<path d="M1810 870 c0 -7 9 -14 20 -17 19 -5 20 -14 20 -198 0 -187 -1 -193
-21 -198 -12 -3 -18 -10 -14 -16 4 -7 44 -11 100 -11 124 0 166 16 203 79 25
42 27 55 27 146 0 80 -4 108 -20 139 -35 70 -60 81 -196 84 -86 3 -119 0 -119
-8z m214 -53 c17 -23 22 -46 24 -129 6 -168 -13 -228 -73 -228 l-25 0 0 196 0
195 27 -3 c14 -2 35 -15 47 -31z"/>
<path d="M2150 869 c0 -6 9 -13 20 -16 19 -5 20 -14 20 -198 0 -184 -1 -193
-20 -198 -11 -3 -20 -10 -20 -16 0 -8 41 -11 138 -9 l137 3 3 63 c4 79 -15 84
-45 11 -21 -49 -23 -50 -60 -47 l-38 3 -3 88 -3 87 30 0 c25 0 30 -5 36 -30
12 -55 25 -31 25 45 0 76 -13 100 -25 44 -6 -25 -11 -30 -33 -27 -27 3 -27 3
-27 88 l0 85 34 0 c30 0 35 -4 51 -45 26 -67 40 -63 40 14 l0 66 -130 0 c-87
0 -130 -4 -130 -11z"/>
<path d="M3361 671 c-43 -170 -57 -210 -72 -214 -42 -11 -17 -27 41 -27 59 0
83 16 40 27 -23 6 -24 21 -9 76 10 38 11 38 56 35 46 -3 46 -3 64 -55 17 -50
17 -51 -2 -56 -10 -3 -19 -10 -19 -16 0 -15 166 -15 175 0 4 6 -2 13 -14 16
-16 4 -27 26 -52 107 -103 338 -92 311 -124 314 l-30 3 -54 -210z m89 -63 c0
-5 -16 -8 -36 -8 -40 0 -39 -7 -12 95 l10 40 19 -60 c10 -33 19 -63 19 -67z"/>
<path d="M3610 870 c0 -5 6 -13 14 -17 11 -6 15 -47 18 -188 4 -192 9 -213 55
-234 32 -15 116 -14 148 1 48 22 55 51 55 242 0 166 1 175 20 181 38 12 20 25
-35 25 -55 0 -76 -16 -35 -27 19 -5 20 -14 20 -180 0 -171 0 -174 -25 -198
-30 -31 -69 -32 -89 -3 -13 18 -16 55 -16 199 0 168 1 177 20 182 11 3 20 10
20 16 0 7 -30 11 -85 11 -47 0 -85 -4 -85 -10z"/>
<path d="M3950 869 c0 -6 9 -13 20 -16 19 -5 20 -14 20 -198 0 -184 -1 -193
-20 -198 -11 -3 -20 -10 -20 -16 0 -8 38 -11 128 -9 l127 3 3 68 c4 86 -17 92
-42 11 -17 -53 -19 -55 -49 -52 l-32 3 -3 187 c-2 179 -2 188 18 198 39 21 20
30 -65 30 -55 0 -85 -4 -85 -11z"/>
<path d="M2878 508 c-24 -20 -28 -44 -12 -67 28 -39 74 -20 74 31 0 17 -7 31
-19 38 -24 13 -24 13 -43 -2z"/>
<path d="M2670 216 l-13 -46 -51 0 -51 0 40 -34 c39 -33 39 -33 27 -73 -17
-56 -16 -57 21 -29 42 32 50 32 93 0 38 -29 40 -25 20 34 l-15 40 42 29 42 28
-52 3 c-50 3 -52 4 -64 40 -17 56 -25 57 -39 8z"/>
<path d="M1871 210 c-12 -40 -12 -40 -64 -40 -57 -1 -58 2 11 -48 22 -17 22
-18 7 -61 -8 -24 -15 -46 -15 -48 0 -3 18 10 40 27 l40 32 40 -32 c44 -35 47
-32 26 28 l-15 40 42 29 42 28 -52 3 c-52 3 -53 4 -64 43 -7 21 -15 39 -19 39
-4 0 -12 -18 -19 -40z"/>
</g>
</svg>
