<?xml version="1.0" encoding="UTF-8" standalone="no"?>
<!-- Created with Inkscape (http://www.inkscape.org/) -->

<svg
   xmlns:dc="http://purl.org/dc/elements/1.1/"
   xmlns:cc="http://creativecommons.org/ns#"
   xmlns:rdf="http://www.w3.org/1999/02/22-rdf-syntax-ns#"
   xmlns:svg="http://www.w3.org/2000/svg"
   xmlns="http://www.w3.org/2000/svg"
   xmlns:sodipodi="http://sodipodi.sourceforge.net/DTD/sodipodi-0.dtd"
   xmlns:inkscape="http://www.inkscape.org/namespaces/inkscape"
   width="700"
   height="700"
   viewBox="0 0 185.20834 185.20834"
   version="1.1"
   id="svg8"
   inkscape:export-filename="C:\Users\suitedoalex\sites\g1-logo-0.png"
   inkscape:export-xdpi="561.73712"
   inkscape:export-ydpi="561.73712"
   inkscape:version="0.92.4 (5da689c313, 2019-01-14)"
   sodipodi:docname="g1-logo-2022.svg">
  <defs
     id="defs2" />
  <sodipodi:namedview
     id="base"
     pagecolor="#ffffff"
     bordercolor="#666666"
     borderopacity="1.0"
     inkscape:pageopacity="0.0"
     inkscape:pageshadow="2"
     inkscape:zoom="0.35"
     inkscape:cx="622.09224"
     inkscape:cy="561.62368"
     inkscape:document-units="mm"
     inkscape:current-layer="layer1"
     showgrid="false"
     units="px"
     inkscape:window-width="1600"
     inkscape:window-height="837"
     inkscape:window-x="-8"
     inkscape:window-y="-8"
     inkscape:window-maximized="1" />
  <metadata
     id="metadata5">
    <rdf:RDF>
      <cc:Work
         rdf:about="">
        <dc:format>image/svg+xml</dc:format>
        <dc:type
           rdf:resource="http://purl.org/dc/dcmitype/StillImage" />
        <dc:title></dc:title>
      </cc:Work>
    </rdf:RDF>
  </metadata>
  <g
     inkscape:label="Layer 1"
     inkscape:groupmode="layer"
     id="layer1"
     transform="translate(0,-111.79161)">
    <path
       inkscape:connector-curvature="0"
       style="fill:#c4180c;fill-opacity:1;fill-rule:nonzero;stroke:none;stroke-width:3.57162261"
       d="m 119.11229,156.37244 22.99232,-14.07721 c 2.51131,-1.28356 5.44115,0.6277 5.44115,4.10175 V 232.102 c 0,1.60439 -1.70209,3.37635 -3.78089,3.37635 h -10.57535 c -0.50224,0 -0.99056,-0.11137 -1.45098,-0.30677 -0.46042,-0.20957 -0.87893,-0.488 -1.22775,-0.86462 -0.34893,-0.36244 -0.62781,-0.79576 -0.80918,-1.26958 -0.19536,-0.47382 -0.29287,-0.97699 -0.27894,-1.49282 v -61.81981 l -7.07349,4.33897 c -2.51128,1.26959 -5.35744,-0.69756 -5.35744,-3.61346 v -10.53351 c 0,-1.50679 0.82316,-2.88795 2.12066,-3.5437 z m -46.431098,62.4057 c -9.389439,0 -17.286084,-7.771 -17.286084,-19.09978 0,-11.48225 7.896645,-19.09977 17.286084,-19.09977 9.389475,0 17.132646,7.60365 17.132646,19.09977 0,11.32878 -7.743171,19.09978 -17.132646,19.09978 z M 93.985387,163.8226 c -2.232264,0 -3.571622,1.39523 -3.571622,3.72513 v 4.032 c -4.032041,-5.12026 -11.468267,-9.01274 -18.918461,-9.01274 -18.178988,0.0101 -33.832732,16.15603 -33.832732,37.26485 0,21.10884 14.746873,35.70229 33.372353,35.70229 3.501868,0.0304 6.864193,-0.68339 10.073083,-2.12064 3.222819,-1.42307 6.013149,-3.46007 8.398885,-6.09694 -0.139644,14.74694 -7.589698,21.41581 -20.397323,21.41581 -6.864196,0 -13.268009,-2.17643 -20.704234,-7.1432 -1.939285,-1.39523 -4.185514,-0.93447 -5.217928,1.24164 l -4.478458,9.16623 c -1.046378,2.17651 -0.739467,4.18547 1.339359,5.58071 9.249932,6.20851 20.118273,9.31971 29.507712,9.31971 24.582837,0 38.129889,-13.82614 38.129889,-45.63593 v -53.71379 c 0,-2.3299 -1.33935,-3.72513 -3.57162,-3.72513 z m 0,0"
       id="path67269"
       inkscape:export-xdpi="92.46183"
       inkscape:export-ydpi="92.46183" />
  </g>
</svg>
